# xmcd
#
# Track frame offsets: 
#        150
#        10070
#        25755
#        36111
#        47615
#        64759
#        83530
#        97596
#        105790
#        114551
#        128802
#        142442
#        152915
#        171432
#        188203
#        200609
#        223832
#        236703
#        246385
#        258802
#
# Disc length: 3645 seconds
#
# Revision: 2
# Processed by: cddbd v1.5.2PL0 Copyright (c) Steve Scherf et al.
# Submitted via: ExactAudioCopyFreeDBPlugin 1.0
#
DISCID=100e3b14
DTITLE=Wim Sonneveld - Zijn 1000 Beste Liedjes van A tot Z - CD 2, 201
DTITLE=0
DYEAR=2010
DGENRE=Hollands
TTITLE0=De kat van Ome Willem
TTITLE1=De wonderen zijn de wereld nog niet uit
TTITLE2=De Lodewijkentijd
TTITLE3=De zomer van 1910
TTITLE4=Deze vrouw (live)
TTITLE5=Douce France
TTITLE6=Donderdag de tiende
TTITLE7=Mrs. Worthington
TTITLE8=Doe het doek maar dicht
TTITLE9=Een cent
TTITLE10=Een zomerdag aan de gracht
TTITLE11=Een zwoele nacht in Krimpen aan de IJssel
TTITLE12=Ein Zug fahrt voruber
TTITLE13=Een loflied op hem
TTITLE14=Elle etait douce
TTITLE15=Fantastisch
TTITLE16=Fly me to the moon
TTITLE17=Goedenavond
TTITLE18=Gerrit
TTITLE19=Het dorp
EXTD=
EXTT0=
EXTT1=
EXTT2=
EXTT3=
EXTT4=
EXTT5=
EXTT6=
EXTT7=
EXTT8=
EXTT9=
EXTT10=
EXTT11=
EXTT12=
EXTT13=
EXTT14=
EXTT15=
EXTT16=
EXTT17=
EXTT18=
EXTT19=
PLAYORDER=
